<?xml version="1.0" encoding="UTF-8" standalone="no"?>
<!DOCTYPE svg PUBLIC "-//W3C//DTD SVG 1.1//EN" "http://www.w3.org/Graphics/SVG/1.1/DTD/svg11.dtd">
<svg xmlns="http://www.w3.org/2000/svg" version="1.1" viewBox="0.00 0.00 392.00 396.00">
<path fill="#f0efe6" d="
  M 330.27 57.32
  Q 328.60 56.87 328.11 56.62
  Q 291.55 37.51 250.65 32.38
  Q 248.53 32.12 237.79 31.58
  Q 230.85 31.24 226.66 31.66
  C 222.02 32.13 217.35 31.91 211.82 32.82
  C 197.76 35.15 184.74 39.60 171.94 45.86
  Q 162.48 50.49 153.76 56.69
  Q 142.28 64.87 131.85 75.10
  Q 126.43 80.40 118.35 90.58
  C 98.50 115.59 86.94 147.24 85.13 179.50
  Q 84.16 196.93 87.20 212.85
  Q 93.18 244.14 110.81 270.19
  C 134.03 304.48 170.05 330.27 211.27 337.48
  C 223.49 339.62 235.93 340.71 248.25 339.47
  C 253.77 338.92 261.29 338.05 266.87 336.89
  C 317.18 326.34 357.62 287.86 378.11 242.07
  Q 382.10 233.16 385.95 220.62
  A 0.43 0.42 26.4 0 1 386.60 220.41
  L 386.62 220.42
  A 0.74 0.72 -61.2 0 1 386.86 221.28
  Q 386.36 222.53 385.84 226.99
  Q 384.04 242.69 377.94 261.47
  Q 367.29 294.27 345.19 320.99
  Q 305.50 368.99 246.99 383.95
  Q 214.37 392.29 179.66 389.76
  Q 144.79 387.21 114.04 373.62
  Q 67.10 352.87 37.02 308.23
  Q 21.26 284.84 13.27 256.98
  Q 2.09 218.03 8.09 176.24
  C 15.12 127.28 40.31 83.64 78.47 52.42
  Q 111.49 25.39 150.15 14.59
  Q 164.78 10.50 180.12 8.85
  Q 194.58 7.30 210.68 8.21
  Q 228.30 9.20 243.14 12.44
  Q 248.23 13.55 259.12 16.94
  C 283.73 24.62 306.39 36.98 325.98 53.23
  A 4.21 3.74 74.9 0 0 326.59 53.63
  Q 328.52 54.62 330.47 57.01
  A 0.19 0.19 0.0 0 1 330.27 57.32
  Z"
/>
</svg>
