<?xml version="1.0" encoding="UTF-8" standalone="no"?>
<!DOCTYPE svg PUBLIC "-//W3C//DTD SVG 1.1//EN" "http://www.w3.org/Graphics/SVG/1.1/DTD/svg11.dtd">
<svg xmlns="http://www.w3.org/2000/svg" version="1.1" viewBox="0.00 0.00 392.00 396.00">
<path fill="#f0efe6" d="
  M 330.30 57.48
  Q 329.89 57.51 328.26 56.66
  Q 292.08 37.78 251.46 32.47
  C 246.27 31.79 241.26 32.08 236.66 31.53
  Q 233.20 31.12 227.34 31.63
  Q 223.27 31.98 217.48 32.05
  A 9.88 9.50 -49.7 0 0 215.73 32.23
  C 212.95 32.76 210.53 32.83 208.59 33.26
  Q 181.95 39.11 162.47 51.02
  Q 145.55 61.37 131.73 75.23
  Q 125.69 81.28 118.34 90.58
  C 98.46 115.73 86.85 147.38 85.13 179.66
  Q 84.19 197.23 87.26 213.17
  Q 93.23 244.24 110.92 270.35
  C 133.29 303.37 168.38 329.18 208.07 336.86
  C 220.23 339.22 232.42 340.53 244.75 339.75
  Q 254.89 339.12 266.48 336.91
  C 292.83 331.89 318.00 317.61 337.83 298.85
  Q 372.27 266.27 385.97 220.62
  A 0.45 0.45 0.0 0 1 386.58 220.33
  L 386.60 220.34
  A 0.41 0.41 0.0 0 1 386.83 220.82
  Q 386.21 223.19 386.03 225.42
  Q 385.91 226.90 385.67 228.54
  Q 378.27 280.02 345.92 320.15
  Q 333.74 335.26 316.46 349.57
  C 312.57 352.79 306.56 356.99 301.08 360.52
  Q 276.22 376.53 246.95 383.93
  Q 213.27 392.45 179.64 389.81
  Q 144.37 387.04 114.07 373.64
  Q 67.52 353.06 37.52 308.98
  C 14.18 274.68 3.48 232.71 6.49 191.20
  C 8.26 166.73 14.10 143.16 24.95 120.42
  Q 43.87 80.76 78.47 52.42
  Q 111.47 25.38 150.21 14.57
  Q 164.94 10.46 180.06 8.86
  Q 194.65 7.32 210.47 8.19
  Q 228.02 9.16 243.17 12.45
  Q 248.35 13.57 258.41 16.73
  Q 267.89 19.70 273.34 21.90
  Q 302.27 33.59 326.16 53.37
  A 3.12 3.07 -11.8 0 0 326.72 53.73
  Q 328.50 54.60 330.49 57.05
  A 0.27 0.26 68.9 0 1 330.30 57.48
  Z"
/>
<path fill="#f0efe6" d="
  M 296.50 276.12
  C 291.96 271.35 285.21 266.96 279.40 262.01
  Q 273.11 256.64 271.13 255.08
  Q 268.83 253.27 232.69 224.88
  A 1.46 1.45 -32.3 0 0 231.48 224.61
  Q 227.15 225.57 222.66 225.28
  Q 210.35 224.49 204.82 213.47
  Q 200.22 204.30 203.59 194.63
  C 204.71 191.39 207.86 188.52 210.28 186.34
  A 1.95 1.94 71.4 0 0 210.92 185.04
  L 220.00 72.08
  A 2.11 2.10 89.5 0 1 221.89 70.15
  L 224.22 69.94
  A 1.73 1.72 84.7 0 1 226.09 71.50
  L 236.51 184.22
  A 2.04 2.04 0.0 0 0 237.40 185.72
  C 246.49 191.83 248.72 201.15 246.74 211.63
  A 1.16 1.15 29.5 0 0 247.01 212.60
  Q 272.83 241.87 297.29 272.57
  A 3.00 2.99 28.0 0 1 297.93 274.66
  L 297.85 275.64
  A 0.79 0.78 -64.5 0 1 296.50 276.12
  Z"
/>
</svg>
