<?xml version="1.0" encoding="UTF-8" standalone="no"?>
<!DOCTYPE svg PUBLIC "-//W3C//DTD SVG 1.1//EN" "http://www.w3.org/Graphics/SVG/1.1/DTD/svg11.dtd">
<svg xmlns="http://www.w3.org/2000/svg" version="1.1" viewBox="0.00 0.00 902.00 674.00">
<path fill="#f0efe6" d="
  M 594.28 57.49
  Q 593.90 57.54 592.33 56.72
  Q 556.29 37.89 515.53 32.48
  C 510.33 31.79 505.28 32.09 500.68 31.54
  Q 497.21 31.13 491.32 31.63
  Q 487.02 31.99 481.64 32.04
  A 11.17 10.56 -49.5 0 0 479.57 32.26
  C 477.04 32.76 474.78 32.88 472.60 33.32
  Q 447.17 38.55 426.49 51.05
  Q 409.17 61.53 395.51 75.52
  C 385.12 86.16 375.87 98.05 368.86 110.81
  Q 347.33 149.96 349.07 195.49
  Q 349.38 203.80 351.63 214.93
  C 358.35 248.14 375.69 277.15 400.69 300.05
  C 421.28 318.91 446.62 332.22 474.49 337.35
  Q 492.47 340.66 509.27 339.77
  Q 513.86 339.53 523.45 338.12
  Q 531.40 336.95 537.43 335.36
  C 584.12 323.08 621.60 286.72 641.32 243.83
  Q 645.79 234.10 649.97 220.55
  A 0.38 0.38 0.0 0 1 650.59 220.38
  L 650.61 220.40
  A 0.72 0.72 0.0 0 1 650.81 221.12
  Q 650.16 223.41 650.02 225.51
  Q 649.91 227.25 649.72 228.49
  Q 642.04 280.50 609.91 320.16
  Q 597.64 335.31 580.06 349.91
  C 576.19 353.12 572.40 355.34 568.28 358.47
  Q 566.92 359.51 563.39 361.66
  Q 539.39 376.28 514.20 383.17
  Q 500.27 386.98 484.00 388.90
  Q 434.62 394.71 388.60 377.89
  Q 341.62 360.70 309.53 319.95
  Q 278.12 280.05 271.49 228.75
  Q 269.04 209.83 270.51 190.75
  Q 275.25 129.10 313.17 81.90
  Q 331.45 59.16 356.71 41.68
  Q 383.32 23.28 414.46 14.50
  C 433.53 9.13 453.54 7.10 473.75 8.16
  Q 492.00 9.12 507.33 12.48
  Q 511.96 13.50 522.32 16.70
  Q 531.17 19.44 537.02 21.78
  Q 565.90 33.35 590.02 53.25
  A 2.94 2.62 -8.5 0 0 590.57 53.61
  Q 592.20 54.42 594.48 56.96
  A 0.32 0.32 0.0 0 1 594.28 57.49
  Z"
/>
<path fill="#f0efe6" d="
  M 560.50 276.05
  Q 556.03 271.77 549.98 267.36
  C 545.73 264.26 542.28 260.66 537.76 257.47
  Q 537.09 257.00 532.78 253.50
  Q 523.99 246.36 496.81 224.97
  A 1.82 1.82 0.0 0 0 495.31 224.63
  Q 491.07 225.59 486.65 225.28
  Q 474.20 224.43 468.74 213.31
  Q 464.22 204.11 467.63 194.46
  C 468.87 190.95 472.71 188.01 474.52 186.01
  A 1.53 1.52 68.6 0 0 474.92 185.09
  L 483.99 72.09
  A 2.13 2.12 89.9 0 1 485.91 70.15
  L 488.18 69.94
  A 1.75 1.75 0.0 0 1 490.08 71.52
  L 500.51 184.23
  A 1.98 1.98 0.0 0 0 501.42 185.72
  C 510.51 191.60 512.75 201.62 510.72 211.65
  A 1.03 1.02 30.2 0 0 510.96 212.55
  Q 536.73 241.74 561.18 272.44
  A 3.59 3.56 -58.8 0 1 561.89 275.38
  L 561.84 275.63
  A 0.81 0.80 27.4 0 1 560.50 276.05
  Z"
/>
<path fill="#f0efe6" d="
  M 334.79 520.40
  Q 341.77 532.39 344.55 547.37
  Q 347.20 561.63 345.54 578.20
  Q 341.44 619.32 310.14 645.14
  Q 291.41 660.60 268.35 664.49
  Q 264.78 665.09 259.94 665.58
  C 236.49 667.92 210.31 660.77 192.03 645.27
  Q 163.31 620.90 159.11 583.49
  Q 158.64 579.23 158.84 568.15
  C 159.56 527.66 189.39 488.09 229.65 479.67
  C 236.53 478.23 242.05 477.07 248.92 476.90
  Q 263.04 476.55 274.08 478.43
  C 282.17 479.80 291.03 482.21 298.72 486.15
  Q 321.72 497.94 334.79 520.40
  Z
  M 236.72 642.79
  C 264.23 652.67 289.96 637.46 300.72 611.47
  Q 309.51 590.23 308.81 567.50
  Q 308.68 563.14 307.48 555.52
  C 304.31 535.44 294.72 516.14 277.95 504.76
  C 262.47 494.26 243.14 493.41 226.81 502.60
  C 214.92 509.30 205.00 522.68 200.43 535.67
  Q 196.91 545.71 196.06 553.01
  C 195.68 556.36 195.11 558.91 194.92 562.09
  C 193.32 587.52 200.91 615.98 221.03 633.32
  Q 228.65 639.90 236.72 642.79
  Z"
/>
<path fill="#f0efe6" d="
  M 9.25 614.74
  A 0.24 0.24 0.0 0 1 9.69 614.60
  Q 12.91 619.08 19.11 624.94
  C 30.47 635.68 44.32 641.97 60.02 643.92
  Q 64.06 644.42 70.91 643.45
  C 78.16 642.42 83.41 639.81 88.05 634.66
  C 94.39 627.62 95.82 616.48 92.47 607.78
  Q 89.17 599.22 81.61 594.17
  C 77.89 591.68 72.81 588.79 68.01 586.53
  C 54.62 580.22 46.28 576.24 36.55 570.44
  C 22.28 561.95 12.43 549.99 10.98 533.03
  Q 8.33 502.13 33.74 486.09
  Q 38.44 483.13 46.57 480.36
  Q 53.74 477.92 64.51 477.18
  C 76.35 476.37 88.51 476.94 99.91 480.31
  Q 108.57 482.87 115.08 485.66
  A 1.38 1.37 11.8 0 1 115.91 486.92
  L 115.91 519.18
  A 0.43 0.43 0.0 0 1 115.22 519.52
  C 102.16 509.39 88.32 502.53 72.08 500.17
  Q 67.90 499.56 62.05 500.37
  Q 56.56 501.13 52.63 503.62
  Q 40.71 511.19 42.98 527.08
  A 6.13 5.96 31.0 0 0 43.35 528.48
  Q 46.11 535.40 53.21 540.37
  Q 58.57 544.11 62.39 545.86
  Q 82.51 555.11 94.23 561.30
  Q 100.55 564.64 107.82 570.69
  C 119.74 580.62 127.46 594.38 126.88 610.22
  Q 125.78 640.12 102.31 655.61
  C 96.53 659.42 89.40 662.38 82.52 663.93
  Q 81.03 664.26 74.20 665.33
  Q 70.36 665.93 65.81 665.96
  Q 51.37 666.03 49.52 665.87
  Q 28.86 664.11 10.48 654.37
  A 2.33 2.32 14.2 0 1 9.25 652.32
  L 9.25 614.74
  Z"
/>
<path fill="#f0efe6" d="
  M 372.32 661.62
  Q 374.73 654.35 375.50 646.51
  Q 377.48 626.30 377.92 620.80
  Q 378.24 616.70 378.64 614.15
  C 379.14 610.95 379.06 609.00 379.46 605.28
  Q 381.34 587.58 382.31 575.51
  Q 382.43 573.97 382.65 571.76
  Q 385.33 543.93 387.62 520.99
  Q 388.92 507.93 389.79 497.25
  Q 390.34 490.57 390.08 483.56
  A 7.61 7.30 -56.6 0 0 389.69 481.43
  L 389.12 479.75
  A 0.48 0.47 -9.6 0 1 389.57 479.12
  L 426.15 479.12
  A 1.60 1.59 -11.9 0 1 427.61 480.06
  Q 469.00 570.90 475.88 586.09
  Q 481.13 597.69 485.24 609.12
  A 0.34 0.33 -43.0 0 0 485.86 609.14
  L 543.08 479.50
  A 0.65 0.64 11.9 0 1 543.67 479.12
  L 580.50 479.12
  A 0.47 0.47 0.0 0 1 580.97 479.66
  C 579.21 491.87 580.43 500.97 581.63 516.39
  Q 581.92 520.01 581.97 523.64
  C 582.05 528.68 582.99 534.23 583.02 539.09
  C 583.04 542.83 583.69 546.04 583.94 549.98
  C 585.20 569.58 586.72 590.13 588.08 606.75
  Q 590.37 634.67 591.01 645.23
  C 591.22 648.75 591.75 651.51 592.27 654.76
  Q 592.85 658.43 594.28 661.66
  A 0.44 0.44 0.0 0 1 593.88 662.28
  L 556.28 662.28
  A 0.65 0.65 0.0 0 1 555.66 661.45
  Q 557.19 656.12 556.84 651.00
  Q 555.89 636.85 555.08 621.59
  Q 554.70 614.37 554.46 611.93
  C 553.81 605.38 554.18 599.18 553.35 592.14
  C 552.83 587.69 553.12 583.57 552.52 578.63
  C 551.81 572.82 552.31 566.76 551.58 561.14
  C 550.80 555.18 551.02 547.17 550.40 539.64
  Q 549.89 533.58 549.69 520.88
  A 0.31 0.31 0.0 0 0 549.09 520.78
  Q 544.92 531.43 540.83 540.36
  Q 511.37 604.70 485.41 661.78
  A 0.68 0.68 0.0 0 1 484.79 662.18
  L 475.81 662.18
  A 0.91 0.90 76.7 0 1 475.00 661.67
  Q 451.05 610.57 428.69 562.30
  Q 419.78 543.05 412.07 523.69
  Q 411.38 521.94 410.64 520.70
  A 0.34 0.33 30.2 0 0 410.02 520.86
  C 409.96 523.38 410.05 526.91 409.65 530.36
  Q 409.02 535.75 407.88 549.75
  Q 401.46 629.25 400.78 636.49
  Q 399.63 648.69 400.11 657.96
  Q 400.22 660.07 400.79 661.72
  A 0.42 0.42 0.0 0 1 400.39 662.27
  L 372.79 662.27
  A 0.50 0.49 -81.0 0 1 372.32 661.62
  Z"
/>
<path fill="#f0efe6" d="
  M 660.44 528.76
  A 0.25 0.24 -68.2 0 0 660.03 528.94
  Q 660.06 596.45 660.10 629.76
  C 660.11 636.38 660.53 644.16 661.13 650.71
  Q 661.69 656.90 663.78 661.69
  A 0.42 0.42 0.0 0 1 663.39 662.28
  L 634.18 662.28
  A 0.55 0.54 -80.1 0 1 633.67 661.55
  C 636.61 653.23 637.01 644.22 637.09 634.00
  Q 637.23 618.62 637.10 517.44
  Q 637.10 511.50 637.10 511.07
  Q 637.21 499.39 635.90 488.25
  Q 635.43 484.25 633.73 479.64
  A 0.38 0.38 0.0 0 1 634.09 479.13
  L 664.27 479.13
  A 2.86 2.83 -19.2 0 1 666.49 480.19
  Q 673.22 488.61 749.00 584.25
  Q 754.03 590.60 769.64 610.86
  Q 769.97 611.28 770.21 611.35
  A 0.34 0.34 0.0 0 0 770.61 610.88
  Q 770.12 609.86 770.12 608.50
  Q 770.05 532.69 770.10 511.75
  Q 770.13 497.25 768.51 484.73
  Q 768.18 482.14 767.24 479.71
  A 0.45 0.44 79.2 0 1 767.65 479.10
  L 796.21 479.10
  A 0.43 0.42 -83.0 0 1 796.62 479.63
  Q 793.63 491.56 793.60 507.50
  Q 793.49 555.53 793.46 631.92
  C 793.45 639.00 793.87 646.40 794.14 651.22
  Q 794.36 655.17 796.62 661.73
  A 0.42 0.42 0.0 0 1 796.22 662.29
  L 770.08 662.29
  A 1.27 1.25 69.5 0 1 769.12 661.84
  C 755.62 645.76 742.51 629.40 729.02 613.24
  Q 721.43 604.14 665.41 535.20
  C 663.41 532.74 662.33 530.60 660.44 528.76
  Z"
/>
<path fill="#f0efe6" d="
  M 871.99 479.12
  Q 893.30 479.13 893.33 479.13
  A 0.22 0.21 -80.8 0 1 893.54 479.42
  C 891.00 486.61 890.43 494.03 890.16 501.90
  Q 889.98 507.27 889.94 570.71
  Q 889.90 634.16 890.08 639.52
  C 890.33 647.39 890.89 654.81 893.43 662.01
  A 0.22 0.21 80.9 0 1 893.22 662.30
  Q 893.19 662.29 871.88 662.28
  Q 850.57 662.27 850.55 662.27
  A 0.22 0.21 -80.8 0 1 850.34 661.98
  C 852.88 654.79 853.45 647.37 853.72 639.50
  Q 853.90 634.13 853.93 570.69
  Q 853.97 507.25 853.80 501.88
  C 853.54 494.01 852.98 486.59 850.45 479.40
  A 0.22 0.21 80.9 0 1 850.66 479.11
  Q 850.69 479.11 871.99 479.12
  Z"
/>
</svg>
