<?xml version="1.0" encoding="UTF-8" standalone="no"?>
<!DOCTYPE svg PUBLIC "-//W3C//DTD SVG 1.1//EN" "http://www.w3.org/Graphics/SVG/1.1/DTD/svg11.dtd">
<svg xmlns="http://www.w3.org/2000/svg" version="1.1" viewBox="0.00 0.00 905.00 204.00">
<path fill="#f0efe6" d="
  M 294.40 186.17
  Q 282.48 192.25 269.55 194.50
  C 239.49 199.73 208.07 191.16 186.35 169.15
  Q 167.02 149.55 161.47 122.28
  Q 160.23 116.22 160.12 113.99
  C 159.57 103.00 159.36 92.42 161.43 82.76
  C 168.99 47.49 194.93 17.56 230.64 9.64
  C 236.82 8.27 243.11 7.08 249.64 6.91
  Q 262.61 6.56 273.68 8.21
  Q 307.30 13.21 328.58 39.76
  C 339.43 53.30 345.59 69.80 346.75 87.49
  Q 347.53 99.24 346.63 108.23
  Q 345.20 122.47 339.78 136.48
  C 331.69 157.35 314.53 175.90 294.40 186.17
  Z
  M 237.78 172.83
  C 252.50 178.28 268.39 176.29 281.31 167.42
  C 295.50 157.67 303.14 141.88 307.07 125.01
  Q 312.84 100.23 306.54 76.22
  C 300.58 53.54 285.22 32.46 261.15 27.21
  Q 251.91 25.19 242.84 27.08
  Q 228.84 29.99 219.54 38.59
  Q 206.92 50.25 201.44 65.68
  Q 197.93 75.55 197.10 82.76
  C 196.71 86.15 196.08 89.12 195.90 92.18
  Q 194.83 109.91 199.67 127.09
  C 205.01 146.10 218.60 165.73 237.78 172.83
  Z"
/>
<path fill="#f0efe6" d="
  M 10.66 144.73
  C 15.68 151.06 22.79 158.16 29.54 162.56
  Q 43.74 171.81 61.02 173.91
  Q 64.96 174.39 71.55 173.50
  Q 77.86 172.65 81.61 170.56
  Q 89.21 166.34 92.66 159.20
  C 98.21 147.74 94.60 133.73 84.73 125.71
  C 80.78 122.50 74.08 118.91 68.22 116.15
  Q 52.90 108.94 46.73 105.76
  Q 45.31 105.03 37.39 100.35
  C 23.33 92.04 13.43 79.92 11.98 63.06
  Q 9.32 32.13 34.75 16.13
  Q 39.74 12.99 47.56 10.36
  Q 54.77 7.94 65.51 7.18
  Q 75.09 6.50 85.21 7.35
  Q 93.17 8.02 100.93 10.31
  Q 109.57 12.87 116.08 15.66
  A 1.39 1.38 11.7 0 1 116.92 16.93
  L 116.92 49.13
  A 0.48 0.47 19.2 0 1 116.15 49.50
  C 103.21 39.34 89.21 32.52 73.08 30.17
  Q 68.96 29.56 63.05 30.37
  Q 57.61 31.11 53.60 33.63
  Q 44.05 39.64 43.58 51.58
  Q 43.35 57.45 45.89 61.72
  C 50.26 69.08 59.26 74.05 67.11 77.64
  Q 85.11 85.87 95.04 91.20
  Q 106.83 97.51 115.79 107.59
  Q 128.40 121.77 127.88 140.46
  C 127.49 154.17 122.53 168.31 112.71 177.97
  Q 100.38 190.10 83.49 193.91
  C 78.79 194.97 72.38 195.93 66.54 195.96
  Q 52.21 196.02 50.30 195.86
  Q 29.80 194.07 11.52 184.39
  A 2.41 2.39 14.2 0 1 10.25 182.28
  L 10.25 144.88
  A 0.23 0.23 0.0 0 1 10.66 144.73
  Z"
/>
<path fill="#f0efe6" d="
  M 401.83 191.74
  A 0.40 0.39 80.1 0 1 401.46 192.27
  L 373.81 192.27
  A 0.59 0.59 0.0 0 1 373.26 191.46
  C 375.58 185.57 376.33 179.07 376.98 171.96
  C 377.82 162.82 378.51 156.37 379.03 149.45
  Q 379.27 146.26 379.76 143.60
  C 380.21 141.14 379.96 138.43 380.41 135.78
  Q 381.04 132.07 381.08 128.41
  A 12.26 11.78 -40.3 0 1 381.28 126.46
  C 382.10 122.16 381.81 117.88 382.52 114.29
  C 383.20 110.83 382.88 107.43 383.45 104.00
  Q 383.80 101.85 384.78 91.10
  C 386.62 70.78 389.01 48.88 390.72 28.25
  C 391.20 22.44 392.02 15.03 390.14 9.85
  A 0.55 0.55 0.0 0 1 390.66 9.12
  L 427.15 9.12
  A 1.58 1.58 0.0 0 1 428.59 10.05
  Q 435.77 25.68 476.42 115.07
  Q 481.92 127.16 486.27 139.16
  A 0.53 0.52 -43.7 0 0 487.25 139.18
  Q 491.72 128.06 498.72 112.21
  Q 521.94 59.62 544.20 9.61
  A 0.83 0.83 0.0 0 1 544.96 9.12
  L 581.40 9.12
  A 0.57 0.57 0.0 0 1 581.97 9.77
  Q 580.83 17.39 581.16 25.27
  Q 581.36 30.06 582.76 50.26
  Q 582.94 52.78 583.15 55.24
  Q 583.95 64.44 584.46 73.74
  Q 584.51 74.66 584.67 77.01
  Q 585.57 90.68 586.57 103.90
  Q 588.80 133.53 589.10 136.99
  Q 590.77 156.35 592.27 177.62
  C 592.59 182.21 593.45 187.21 595.28 191.65
  A 0.47 0.46 78.9 0 1 594.85 192.29
  L 557.27 192.29
  A 0.63 0.62 -82.0 0 1 556.67 191.49
  Q 558.23 186.05 557.81 180.00
  Q 556.39 159.51 555.84 146.75
  C 555.72 143.78 555.15 140.79 555.13 138.07
  Q 555.07 129.02 554.65 125.08
  Q 553.97 118.63 553.95 115.41
  C 553.92 110.52 553.01 106.73 553.07 102.53
  Q 553.15 96.75 552.55 90.63
  Q 552.03 85.29 552.05 82.35
  C 552.10 75.73 550.92 67.50 551.02 62.44
  Q 551.03 62.04 550.64 50.81
  A 0.28 0.27 -35.2 0 0 550.11 50.72
  Q 544.22 65.30 537.40 80.15
  Q 509.80 140.23 486.53 191.59
  A 1.02 1.02 0.0 0 1 485.60 192.19
  L 476.86 192.19
  A 0.97 0.96 77.4 0 1 475.99 191.63
  Q 449.82 135.79 429.71 92.30
  Q 419.28 69.75 413.09 53.68
  Q 412.76 52.82 411.69 50.71
  A 0.35 0.35 0.0 0 0 411.03 50.82
  C 410.77 52.70 411.02 56.42 410.74 59.38
  Q 408.71 80.98 408.07 89.50
  Q 407.02 103.62 401.36 171.75
  Q 400.65 180.36 401.04 187.50
  Q 401.17 189.88 401.83 191.74
  Z"
/>
<path fill="#f0efe6" d="
  M 661.14 58.89
  A 0.06 0.06 0.0 0 0 661.03 58.93
  Q 661.07 134.82 661.11 161.15
  C 661.12 167.13 661.56 173.95 662.11 180.48
  Q 662.63 186.74 664.77 191.68
  A 0.43 0.43 0.0 0 1 664.37 192.28
  L 635.19 192.28
  A 0.55 0.55 0.0 0 1 634.67 191.55
  C 637.58 183.24 638.05 174.16 638.09 164.00
  Q 638.19 138.61 638.13 44.25
  Q 638.12 30.02 636.91 18.50
  Q 636.42 13.80 634.73 9.67
  A 0.39 0.39 0.0 0 1 635.09 9.13
  L 665.22 9.13
  A 2.97 2.96 70.6 0 1 667.53 10.24
  Q 674.27 18.69 749.89 114.11
  Q 754.67 120.14 770.64 140.86
  Q 770.97 141.28 771.20 141.36
  A 0.34 0.34 0.0 0 0 771.62 140.90
  Q 771.13 139.75 771.13 138.50
  Q 771.12 133.25 771.04 36.25
  Q 771.03 24.62 769.51 14.80
  Q 769.04 11.78 768.21 9.76
  A 0.48 0.48 0.0 0 1 768.65 9.10
  L 797.21 9.10
  A 0.41 0.40 -83.2 0 1 797.60 9.60
  Q 794.60 21.66 794.59 37.75
  Q 794.50 119.10 794.42 153.25
  Q 794.39 168.17 795.17 181.43
  Q 795.42 185.81 797.66 191.65
  A 0.47 0.46 -10.3 0 1 797.22 192.28
  L 770.86 192.28
  A 1.62 1.60 -19.6 0 1 769.62 191.70
  L 661.14 58.89
  Z"
/>
<path fill="#f0efe6" d="
  M 872.99 9.12
  Q 891.54 9.13 893.99 9.20
  A 0.39 0.39 0.0 0 1 894.35 9.70
  Q 890.99 21.31 890.98 33.90
  Q 890.96 67.30 890.94 100.71
  Q 890.92 134.11 890.90 167.52
  Q 890.89 180.11 894.24 191.72
  A 0.39 0.39 0.0 0 1 893.88 192.22
  Q 891.44 192.29 872.89 192.28
  Q 854.33 192.27 851.89 192.20
  A 0.39 0.39 0.0 0 1 851.53 191.70
  Q 854.89 180.09 854.90 167.50
  Q 854.91 134.09 854.93 100.69
  Q 854.95 67.28 854.97 33.88
  Q 854.98 21.29 851.63 9.67
  A 0.39 0.39 0.0 0 1 851.99 9.18
  Q 854.44 9.11 872.99 9.12
  Z"
/>
</svg>
